<svg xmlns="http://www.w3.org/2000/svg" xmlns:xlink="http://www.w3.org/1999/xlink" id="Layer_1" x="0" y="0" version="1.1" viewBox="0 0 200 200" xml:space="preserve" style="enable-background:new 0 0 200 200"><style type="text/css">.st0{clip-path:url(#SVGID_2_);fill:url(#SVGID_3_)}.st1,.st2{opacity:.25;clip-path:url(#SVGID_5_);fill:url(#SVGID_6_);enable-background:new}.st2{clip-path:url(#SVGID_8_);fill:url(#SVGID_9_)}.st3{fill:#fff}</style><g><g><g><g><g><g><g><defs><rect id="SVGID_1_" width="200" height="203.8" x="-.4" y="-.3"/></defs><clipPath id="SVGID_2_"><use xlink:href="#SVGID_1_" style="overflow:visible"/></clipPath><linearGradient id="SVGID_3_" x1="-.4" x2="199.6" y1="-1079.35" y2="-1079.35" gradientTransform="matrix(1 0 0 -1 0 -978)" gradientUnits="userSpaceOnUse"><stop offset="0" style="stop-color:#e67941"/><stop offset="1" style="stop-color:#fee040"/></linearGradient><rect width="200" height="203.3" x="-.4" y="-.3" class="st0"/></g></g></g></g></g></g><g><g><g><g><g><g><defs><rect id="SVGID_4_" width="200" height="203.8" x="-.4" y="-.3"/></defs><clipPath id="SVGID_5_"><use xlink:href="#SVGID_4_" style="overflow:visible"/></clipPath><linearGradient id="SVGID_6_" x1="3094.2" x2="3294.2" y1="-1078.1" y2="-1078.1" gradientTransform="matrix(1 0 1 -1 -2010 -978)" gradientUnits="userSpaceOnUse"><stop offset="0" style="stop-color:#e67941"/><stop offset="1" style="stop-color:#fee040"/></linearGradient><polygon points="106.1 .1 306.1 .1 106.1 200.1 -93.9 200.1" class="st1"/></g></g></g></g><g><g><g><g><defs><rect id="SVGID_7_" width="200" height="203.8" x="-.4" y="-.3"/></defs><clipPath id="SVGID_8_"><use xlink:href="#SVGID_7_" style="overflow:visible"/></clipPath><linearGradient id="SVGID_9_" x1="3188" x2="3388" y1="-1078" y2="-1078" gradientTransform="matrix(1 0 1 -1 -2010 -978)" gradientUnits="userSpaceOnUse"><stop offset="0" style="stop-color:#e67843"/><stop offset="1" style="stop-color:#fee040"/></linearGradient><polygon points="200 0 400 0 200 200 0 200" class="st2"/></g></g></g></g></g></g></g><path d="M149.8,140.2v-8.5c0-5.6-4.6-10.2-10.2-10.2h-18.3v4.1h18.3c3.4,0,6.1,2.7,6.1,6.1v8.5	c-2.4,0.8-4.1,3.1-4.1,5.7c0,3.4,2.7,6.1,6.1,6.1c3.4,0,6.1-2.7,6.1-6.1C153.9,143.3,152.2,141.1,149.8,140.2z M147.8,148	c-1.1,0-2-0.9-2-2s0.9-2,2-2s2,0.9,2,2S148.9,148,147.8,148z" class="st3"/><path d="M151.8,105.3c-2.6,0-4.9,1.7-5.7,4.1h-6.5v4.1h6.5c0.8,2.4,3.1,4.1,5.7,4.1c3.4,0,6.1-2.7,6.1-6.1	C157.9,108,155.2,105.3,151.8,105.3z M151.8,113.4c-1.1,0-2-0.9-2-2c0-1.1,0.9-2,2-2s2,0.9,2,2C153.9,112.5,153,113.4,151.8,113.4z" class="st3"/><path d="M103,121.5h14.2v4.1H103V121.5z" class="st3"/><path d="M103,109.3h32.6v4.1H103V109.3z" class="st3"/><path d="M146.1,93h-35v4.1h35c0.8,2.4,3.1,4.1,5.7,4.1c3.4,0,6.1-2.7,6.1-6.1c0-3.4-2.7-6.1-6.1-6.1	C149.2,89,146.9,90.7,146.1,93z M151.8,93c1.1,0,2,0.9,2,2s-0.9,2-2,2s-2-0.9-2-2S150.7,93,151.8,93z" class="st3"/><path d="M103,80.8h24.4v4.1H103V80.8z" class="st3"/><path d="M149.8,74.7v-8.5c2.4-0.8,4.1-3.1,4.1-5.7c0-3.4-2.7-6.1-6.1-6.1c-3.4,0-6.1,2.7-6.1,6.1c0,2.6,1.7,4.9,4.1,5.7	v8.5c0,3.4-2.7,6.1-6.1,6.1h-8.1v4.1h8.1C145.2,84.9,149.8,80.3,149.8,74.7z M147.8,58.4c1.1,0,2,0.9,2,2c0,1.1-0.9,2-2,2	s-2-0.9-2-2C145.7,59.4,146.6,58.4,147.8,58.4z" class="st3"/><path d="M103,93h4.1v4.1H103V93z" class="st3"/><path d="M84.7,44.2c-7.9,0-14.2,6.4-14.2,14.2c0,2.5,0.7,5,1.9,7.1l-3.5,2c-1.6-2.8-2.5-5.9-2.5-9.2	c0-1.1,0.1-2.1,0.3-3.1c-7.4,2.5-12.5,9.4-12.5,17.4c0,2.6,0.6,5.2,1.7,7.6l0.8,1.8L54.8,83c-7.8,3.7-12.9,11.6-12.9,20.2	c0,7.4,3.7,14.3,9.8,18.5c3.7-3.8,8.9-6.2,14.6-6.2v4.1c-9,0-16.3,7.3-16.3,16.3c0,9,7.3,16.3,16.3,16.3c0.9,0,1.8-0.1,2.8-0.3	l1.6-0.3l0.6,1.6c2.1,5.5,7.4,9.2,13.3,9.2c7.9,0,14.2-6.4,14.2-14.2V58.4C98.9,50.6,92.5,44.2,84.7,44.2z M66.4,148	c-6.7,0-12.2-5.5-12.2-12.2h4.1c0,4.5,3.7,8.1,8.1,8.1V148z M62.9,95.7c-1.2,1.2-1.8,2.7-1.8,4.3c0,1.6,0.6,3.2,1.8,4.3l-2.9,2.9	c-1.9-1.9-3-4.5-3-7.2c0-2.7,1.1-5.3,3-7.2c1.9-1.9,4.5-3,7.2-3c2.7,0,5.3,1.1,7.2,3l-2.9,2.9C69.2,93.4,65.2,93.4,62.9,95.7z M82.6,123.6c-3.4,0-6.1,2.7-6.1,6.1c0,3.4,2.7,6.1,6.1,6.1v4.1c-5.6,0-10.2-4.6-10.2-10.2s4.6-10.2,10.2-10.2V123.6z M82.6,97.1V93	c3.4,0,6.1-2.7,6.1-6.1c0-3.4-2.7-6.1-6.1-6.1v-4.1c5.6,0,10.2,4.6,10.2,10.2S88.2,97.1,82.6,97.1z M84.7,158.2v-4.1	c3.4,0,6.1-2.7,6.1-6.1h4.1C94.8,153.6,90.3,158.2,84.7,158.2z M90.8,58.4c0-3.4-2.7-6.1-6.1-6.1c-3.4,0-6.1,2.7-6.1,6.1h-4.1	c0-5.6,4.6-10.2,10.2-10.2s10.2,4.6,10.2,10.2H90.8z" class="st3"/></svg>